<svg xmlns="http://www.w3.org/2000/svg" xmlns:xlink="http://www.w3.org/1999/xlink" width="1192" zoomAndPan="magnify" viewBox="0 0 894 613.499987" height="818" preserveAspectRatio="xMidYMid meet" version="1.0"><defs><g/><clipPath id="4477d40c8a"><path d="M 331.027344 204.980469 L 334.777344 204.980469 L 334.777344 208.726562 L 331.027344 208.726562 Z M 331.027344 204.980469 " clip-rule="nonzero"/></clipPath><clipPath id="ef61d041ae"><path d="M 0.0273438 0.980469 L 3.777344 0.980469 L 3.777344 4.726562 L 0.0273438 4.726562 Z M 0.0273438 0.980469 " clip-rule="nonzero"/></clipPath><clipPath id="e2ddcaae45"><rect x="0" width="4" y="0" height="5"/></clipPath></defs><g fill="#f9bd12" fill-opacity="1"><g transform="translate(79.989437, 324.190805)"><g><path d="M 74.375 2.421875 C 60.96875 2.421875 49.539062 -0.0195312 40.09375 -4.90625 C 30.644531 -9.789062 23.457031 -17.359375 18.53125 -27.609375 C 13.601562 -37.867188 11.140625 -50.992188 11.140625 -66.984375 C 11.140625 -83.546875 13.945312 -97.054688 19.5625 -107.515625 C 25.175781 -117.972656 32.96875 -125.664062 42.9375 -130.59375 C 52.914062 -135.519531 64.488281 -137.984375 77.65625 -137.984375 C 87.019531 -137.984375 95.113281 -137.070312 101.9375 -135.25 C 108.757812 -133.4375 114.71875 -131.273438 119.8125 -128.765625 L 108.90625 -100.1875 C 103.09375 -102.53125 97.679688 -104.445312 92.671875 -105.9375 C 87.660156 -107.425781 82.65625 -108.171875 77.65625 -108.171875 C 71.1875 -108.171875 65.8125 -106.65625 61.53125 -103.625 C 57.257812 -100.601562 54.070312 -96.0625 51.96875 -90 C 49.863281 -83.945312 48.8125 -76.359375 48.8125 -67.234375 C 48.8125 -58.265625 49.941406 -50.832031 52.203125 -44.9375 C 54.472656 -39.039062 57.742188 -34.660156 62.015625 -31.796875 C 66.296875 -28.929688 71.507812 -27.5 77.65625 -27.5 C 85.320312 -27.5 92.144531 -28.523438 98.125 -30.578125 C 104.101562 -32.640625 109.914062 -35.53125 115.5625 -39.25 L 115.5625 -7.625 C 109.914062 -4.070312 104 -1.507812 97.8125 0.0625 C 91.632812 1.632812 83.820312 2.421875 74.375 2.421875 Z M 74.375 2.421875 "/></g></g></g><g fill="#f9bd12" fill-opacity="1"><g transform="translate(189.934127, 324.190805)"><g><path d="M 56.328125 0 L 19.375 0 L 19.375 -188.5 L 56.328125 -188.5 Z M 56.328125 0 "/></g></g></g><g fill="#f9bd12" fill-opacity="1"><g transform="translate(248.031297, 324.190805)"><g><path d="M 56.328125 -135.4375 L 56.328125 0 L 19.375 0 L 19.375 -135.4375 Z M 37.921875 -188.5 C 43.410156 -188.5 48.132812 -187.222656 52.09375 -184.671875 C 56.050781 -182.128906 58.03125 -177.382812 58.03125 -170.4375 C 58.03125 -163.570312 56.050781 -158.828125 52.09375 -156.203125 C 48.132812 -153.578125 43.410156 -152.265625 37.921875 -152.265625 C 32.347656 -152.265625 27.601562 -153.578125 23.6875 -156.203125 C 19.769531 -158.828125 17.8125 -163.570312 17.8125 -170.4375 C 17.8125 -177.382812 19.769531 -182.128906 23.6875 -184.671875 C 27.601562 -187.222656 32.347656 -188.5 37.921875 -188.5 Z M 37.921875 -188.5 "/></g></g></g><g fill="#f9bd12" fill-opacity="1"><g transform="translate(306.128468, 324.190805)"><g><path d="M 178.4375 -137.984375 C 193.78125 -137.984375 205.390625 -134.046875 213.265625 -126.171875 C 221.140625 -118.296875 225.078125 -105.675781 225.078125 -88.3125 L 225.078125 0 L 188.015625 0 L 188.015625 -79.109375 C 188.015625 -88.796875 186.359375 -96.101562 183.046875 -101.03125 C 179.734375 -105.957031 174.601562 -108.421875 167.65625 -108.421875 C 157.882812 -108.421875 150.9375 -104.925781 146.8125 -97.9375 C 142.695312 -90.957031 140.640625 -80.960938 140.640625 -67.953125 L 140.640625 0 L 103.703125 0 L 103.703125 -79.109375 C 103.703125 -85.566406 102.972656 -90.972656 101.515625 -95.328125 C 100.054688 -99.691406 97.832031 -102.960938 94.84375 -105.140625 C 91.863281 -107.328125 88.03125 -108.421875 83.34375 -108.421875 C 76.476562 -108.421875 71.085938 -106.703125 67.171875 -103.265625 C 63.253906 -99.835938 60.46875 -94.789062 58.8125 -88.125 C 57.15625 -81.46875 56.328125 -73.332031 56.328125 -63.71875 L 56.328125 0 L 19.375 0 L 19.375 -135.4375 L 47.609375 -135.4375 L 52.578125 -118.109375 L 54.640625 -118.109375 C 57.378906 -122.796875 60.828125 -126.59375 64.984375 -129.5 C 69.148438 -132.40625 73.734375 -134.546875 78.734375 -135.921875 C 83.742188 -137.296875 88.832031 -137.984375 94 -137.984375 C 103.9375 -137.984375 112.359375 -136.363281 119.265625 -133.125 C 126.171875 -129.894531 131.476562 -124.890625 135.1875 -118.109375 L 138.46875 -118.109375 C 142.5 -125.054688 148.207031 -130.101562 155.59375 -133.25 C 162.988281 -136.40625 170.601562 -137.984375 178.4375 -137.984375 Z M 178.4375 -137.984375 "/></g></g></g><g fill="#f9bd12" fill-opacity="1"><g transform="translate(532.124341, 324.190805)"><g><path d="M 74.859375 -138.21875 C 93.035156 -138.21875 106.96875 -134.257812 116.65625 -126.34375 C 126.34375 -118.4375 131.1875 -106.40625 131.1875 -90.25 L 131.1875 0 L 105.390625 0 L 98.25 -18.40625 L 97.28125 -18.40625 C 93.394531 -13.5625 89.429688 -9.601562 85.390625 -6.53125 C 81.359375 -3.46875 76.71875 -1.210938 71.46875 0.234375 C 66.21875 1.691406 59.835938 2.421875 52.328125 2.421875 C 44.335938 2.421875 37.171875 0.890625 30.828125 -2.171875 C 24.492188 -5.242188 19.507812 -9.945312 15.875 -16.28125 C 12.238281 -22.625 10.421875 -30.679688 10.421875 -40.453125 C 10.421875 -54.835938 15.46875 -65.441406 25.5625 -72.265625 C 35.65625 -79.085938 50.796875 -82.863281 70.984375 -83.59375 L 94.484375 -84.3125 L 94.484375 -90.25 C 94.484375 -97.351562 92.625 -102.5625 88.90625 -105.875 C 85.195312 -109.1875 80.03125 -110.84375 73.40625 -110.84375 C 66.863281 -110.84375 60.441406 -109.910156 54.140625 -108.046875 C 47.847656 -106.191406 41.550781 -103.851562 35.25 -101.03125 L 23.015625 -125.984375 C 30.203125 -129.773438 38.253906 -132.757812 47.171875 -134.9375 C 56.097656 -137.125 65.328125 -138.21875 74.859375 -138.21875 Z M 94.484375 -62.75 L 80.1875 -62.265625 C 68.238281 -61.941406 59.941406 -59.800781 55.296875 -55.84375 C 50.648438 -51.882812 48.328125 -46.675781 48.328125 -40.21875 C 48.328125 -34.5625 49.984375 -30.539062 53.296875 -28.15625 C 56.609375 -25.78125 60.929688 -24.59375 66.265625 -24.59375 C 74.179688 -24.59375 80.863281 -26.929688 86.3125 -31.609375 C 91.757812 -36.296875 94.484375 -42.960938 94.484375 -51.609375 Z M 94.484375 -62.75 "/></g></g></g><g fill="#0a683b" fill-opacity="1"><g transform="translate(664.3608, 324.190805)"><g><path d="M 14.171875 -17.328125 C 14.171875 -24.910156 16.25 -30.238281 20.40625 -33.3125 C 24.570312 -36.382812 29.601562 -37.921875 35.5 -37.921875 C 41.226562 -37.921875 46.171875 -36.382812 50.328125 -33.3125 C 54.492188 -30.238281 56.578125 -24.910156 56.578125 -17.328125 C 56.578125 -10.054688 54.492188 -4.804688 50.328125 -1.578125 C 46.171875 1.648438 41.226562 3.265625 35.5 3.265625 C 29.601562 3.265625 24.570312 1.648438 20.40625 -1.578125 C 16.25 -4.804688 14.171875 -10.054688 14.171875 -17.328125 Z M 14.171875 -17.328125 "/></g></g></g><g fill="#2964ae" fill-opacity="1"><g transform="translate(79.989437, 480.06376)"><g><path d="M 113.875 -40.21875 C 113.875 -31.007812 111.710938 -23.234375 107.390625 -16.890625 C 103.066406 -10.554688 96.625 -5.753906 88.0625 -2.484375 C 79.507812 0.785156 68.851562 2.421875 56.09375 2.421875 C 46.644531 2.421875 38.546875 1.8125 31.796875 0.59375 C 25.054688 -0.613281 18.253906 -2.628906 11.390625 -5.453125 L 11.390625 -35.984375 C 18.734375 -32.671875 26.625 -29.941406 35.0625 -27.796875 C 43.507812 -25.660156 50.921875 -24.59375 57.296875 -24.59375 C 64.484375 -24.59375 69.628906 -25.660156 72.734375 -27.796875 C 75.847656 -29.941406 77.40625 -32.75 77.40625 -36.21875 C 77.40625 -38.476562 76.78125 -40.515625 75.53125 -42.328125 C 74.28125 -44.148438 71.59375 -46.210938 67.46875 -48.515625 C 63.351562 -50.816406 56.894531 -53.828125 48.09375 -57.546875 C 39.613281 -61.097656 32.644531 -64.691406 27.1875 -68.328125 C 21.738281 -71.960938 17.703125 -76.257812 15.078125 -81.21875 C 12.453125 -86.1875 11.140625 -92.507812 11.140625 -100.1875 C 11.140625 -112.695312 16.003906 -122.125 25.734375 -128.46875 C 35.472656 -134.8125 48.5 -137.984375 64.8125 -137.984375 C 73.207031 -137.984375 81.21875 -137.132812 88.84375 -135.4375 C 96.476562 -133.738281 104.335938 -131.03125 112.421875 -127.3125 L 101.265625 -100.671875 C 94.566406 -103.578125 88.25 -105.957031 82.3125 -107.8125 C 76.375 -109.664062 70.335938 -110.59375 64.203125 -110.59375 C 58.796875 -110.59375 54.71875 -109.863281 51.96875 -108.40625 C 49.21875 -106.957031 47.84375 -104.738281 47.84375 -101.75 C 47.84375 -99.570312 48.550781 -97.632812 49.96875 -95.9375 C 51.382812 -94.25 54.128906 -92.375 58.203125 -90.3125 C 62.285156 -88.25 68.285156 -85.601562 76.203125 -82.375 C 83.867188 -79.226562 90.53125 -75.9375 96.1875 -72.5 C 101.84375 -69.070312 106.203125 -64.832031 109.265625 -59.78125 C 112.335938 -54.738281 113.875 -48.21875 113.875 -40.21875 Z M 113.875 -40.21875 "/></g></g></g><g fill="#2964ae" fill-opacity="1"><g transform="translate(185.69425, 480.06376)"><g><path d="M 75.234375 -137.984375 C 87.742188 -137.984375 98.519531 -135.578125 107.5625 -130.765625 C 116.613281 -125.960938 123.601562 -119 128.53125 -109.875 C 133.457031 -100.75 135.921875 -89.601562 135.921875 -76.4375 L 135.921875 -58.515625 L 48.578125 -58.515625 C 48.984375 -48.097656 52.113281 -39.921875 57.96875 -33.984375 C 63.820312 -28.046875 71.957031 -25.078125 82.375 -25.078125 C 91.019531 -25.078125 98.9375 -25.960938 106.125 -27.734375 C 113.3125 -29.515625 120.695312 -32.179688 128.28125 -35.734375 L 128.28125 -7.140625 C 121.582031 -3.835938 114.578125 -1.421875 107.265625 0.109375 C 99.960938 1.648438 91.097656 2.421875 80.671875 2.421875 C 67.109375 2.421875 55.097656 -0.078125 44.640625 -5.078125 C 34.179688 -10.085938 25.984375 -17.722656 20.046875 -27.984375 C 14.109375 -38.242188 11.140625 -51.164062 11.140625 -66.75 C 11.140625 -82.570312 13.820312 -95.753906 19.1875 -106.296875 C 24.5625 -116.835938 32.054688 -124.753906 41.671875 -130.046875 C 51.285156 -135.335938 62.472656 -137.984375 75.234375 -137.984375 Z M 75.46875 -111.6875 C 68.28125 -111.6875 62.320312 -109.382812 57.59375 -104.78125 C 52.875 -100.175781 50.148438 -92.953125 49.421875 -83.109375 L 101.265625 -83.109375 C 101.191406 -88.597656 100.203125 -93.484375 98.296875 -97.765625 C 96.398438 -102.046875 93.570312 -105.4375 89.8125 -107.9375 C 86.0625 -110.4375 81.28125 -111.6875 75.46875 -111.6875 Z M 75.46875 -111.6875 "/></g></g></g><g fill="#2964ae" fill-opacity="1"><g transform="translate(314.657755, 480.06376)"><g><path d="M 59 59.59375 C 40.09375 59.59375 25.65625 56.300781 15.6875 49.71875 C 5.71875 43.144531 0.734375 33.921875 0.734375 22.046875 C 0.734375 13.890625 3.273438 7.066406 8.359375 1.578125 C 13.441406 -3.910156 20.910156 -7.828125 30.765625 -10.171875 C 26.972656 -11.785156 23.660156 -14.429688 20.828125 -18.109375 C 18.003906 -21.785156 16.59375 -25.679688 16.59375 -29.796875 C 16.59375 -34.960938 18.085938 -39.257812 21.078125 -42.6875 C 24.066406 -46.125 28.390625 -49.5 34.046875 -52.8125 C 26.929688 -55.882812 21.296875 -60.8125 17.140625 -67.59375 C 12.984375 -74.375 10.90625 -82.367188 10.90625 -91.578125 C 10.90625 -101.429688 13.0625 -109.8125 17.375 -116.71875 C 21.695312 -123.625 28 -128.894531 36.28125 -132.53125 C 44.5625 -136.164062 54.632812 -137.984375 66.5 -137.984375 C 69.007812 -137.984375 71.914062 -137.820312 75.21875 -137.5 C 78.53125 -137.175781 81.578125 -136.8125 84.359375 -136.40625 C 87.148438 -136 89.03125 -135.675781 90 -135.4375 L 137.25 -135.4375 L 137.25 -116.65625 L 116.046875 -111.203125 C 117.984375 -108.210938 119.4375 -105.019531 120.40625 -101.625 C 121.375 -98.238281 121.859375 -94.648438 121.859375 -90.859375 C 121.859375 -76.316406 116.789062 -64.988281 106.65625 -56.875 C 96.519531 -48.757812 82.453125 -44.703125 64.453125 -44.703125 C 60.171875 -44.941406 56.128906 -45.265625 52.328125 -45.671875 C 50.472656 -44.210938 49.0625 -42.675781 48.09375 -41.0625 C 47.125 -39.445312 46.640625 -37.753906 46.640625 -35.984375 C 46.640625 -34.203125 47.382812 -32.722656 48.875 -31.546875 C 50.375 -30.378906 52.632812 -29.492188 55.65625 -28.890625 C 58.6875 -28.285156 62.460938 -27.984375 66.984375 -27.984375 L 90 -27.984375 C 104.863281 -27.984375 116.191406 -24.789062 123.984375 -18.40625 C 131.773438 -12.03125 135.671875 -2.664062 135.671875 9.6875 C 135.671875 25.519531 129.066406 37.796875 115.859375 46.515625 C 102.660156 55.234375 83.707031 59.59375 59 59.59375 Z M 60.5625 35.5 C 69.375 35.5 76.945312 34.671875 83.28125 33.015625 C 89.625 31.359375 94.488281 29.015625 97.875 25.984375 C 101.269531 22.953125 102.96875 19.335938 102.96875 15.140625 C 102.96875 11.742188 101.976562 9.054688 100 7.078125 C 98.019531 5.109375 95.03125 3.71875 91.03125 2.90625 C 87.039062 2.101562 81.9375 1.703125 75.71875 1.703125 L 56.578125 1.703125 C 52.046875 1.703125 47.984375 2.425781 44.390625 3.875 C 40.796875 5.332031 37.945312 7.375 35.84375 10 C 33.75 12.625 32.703125 15.671875 32.703125 19.140625 C 32.703125 24.222656 35.144531 28.21875 40.03125 31.125 C 44.914062 34.039062 51.757812 35.5 60.5625 35.5 Z M 66.5 -67.234375 C 73.445312 -67.234375 78.535156 -69.375 81.765625 -73.65625 C 84.992188 -77.9375 86.609375 -83.75 86.609375 -91.09375 C 86.609375 -99.25 84.929688 -105.363281 81.578125 -109.4375 C 78.234375 -113.519531 73.207031 -115.5625 66.5 -115.5625 C 59.71875 -115.5625 54.628906 -113.519531 51.234375 -109.4375 C 47.847656 -105.363281 46.15625 -99.25 46.15625 -91.09375 C 46.15625 -83.75 47.828125 -77.9375 51.171875 -73.65625 C 54.523438 -69.375 59.632812 -67.234375 66.5 -67.234375 Z M 66.5 -67.234375 "/></g></g></g><g fill="#2964ae" fill-opacity="1"><g transform="translate(437.200911, 480.06376)"><g><path d="M 143.671875 -135.4375 L 143.671875 0 L 115.328125 0 L 110.359375 -17.328125 L 108.421875 -17.328125 C 105.515625 -12.722656 101.878906 -8.96875 97.515625 -6.0625 C 93.148438 -3.15625 88.34375 -1.015625 83.09375 0.359375 C 77.851562 1.734375 72.40625 2.421875 66.75 2.421875 C 57.0625 2.421875 48.617188 0.707031 41.421875 -2.71875 C 34.234375 -6.15625 28.640625 -11.503906 24.640625 -18.765625 C 20.648438 -26.035156 18.65625 -35.488281 18.65625 -47.125 L 18.65625 -135.4375 L 55.609375 -135.4375 L 55.609375 -56.328125 C 55.609375 -46.640625 57.34375 -39.332031 60.8125 -34.40625 C 64.28125 -29.476562 69.8125 -27.015625 77.40625 -27.015625 C 84.914062 -27.015625 90.8125 -28.726562 95.09375 -32.15625 C 99.375 -35.59375 102.378906 -40.640625 104.109375 -47.296875 C 105.847656 -53.960938 106.71875 -62.101562 106.71875 -71.71875 L 106.71875 -135.4375 Z M 143.671875 -135.4375 "/></g></g></g><g fill="#2964ae" fill-opacity="1"><g transform="translate(582.639318, 480.06376)"><g><path d="M 94.96875 -137.984375 C 96.832031 -137.984375 98.992188 -137.878906 101.453125 -137.671875 C 103.921875 -137.472656 105.921875 -137.210938 107.453125 -136.890625 L 104.671875 -102.234375 C 103.453125 -102.640625 101.734375 -102.941406 99.515625 -103.140625 C 97.296875 -103.347656 95.378906 -103.453125 93.765625 -103.453125 C 88.992188 -103.453125 84.367188 -102.84375 79.890625 -101.625 C 75.410156 -100.414062 71.394531 -98.457031 67.84375 -95.75 C 64.289062 -93.050781 61.484375 -89.5 59.421875 -85.09375 C 57.359375 -80.695312 56.328125 -75.304688 56.328125 -68.921875 L 56.328125 0 L 19.375 0 L 19.375 -135.4375 L 47.359375 -135.4375 L 52.8125 -112.65625 L 54.640625 -112.65625 C 57.296875 -117.257812 60.625 -121.476562 64.625 -125.3125 C 68.625 -129.15625 73.1875 -132.226562 78.3125 -134.53125 C 83.445312 -136.832031 89 -137.984375 94.96875 -137.984375 Z M 94.96875 -137.984375 "/></g></g></g><g fill="#2964ae" fill-opacity="1"><g transform="translate(677.683952, 480.06376)"><g><path d="M 142.453125 -67.953125 C 142.453125 -56.648438 140.9375 -46.632812 137.90625 -37.90625 C 134.882812 -29.1875 130.484375 -21.816406 124.703125 -15.796875 C 118.929688 -9.785156 111.988281 -5.242188 103.875 -2.171875 C 95.757812 0.890625 86.613281 2.421875 76.4375 2.421875 C 66.90625 2.421875 58.160156 0.890625 50.203125 -2.171875 C 42.253906 -5.242188 35.351562 -9.785156 29.5 -15.796875 C 23.644531 -21.816406 19.117188 -29.1875 15.921875 -37.90625 C 12.734375 -46.632812 11.140625 -56.648438 11.140625 -67.953125 C 11.140625 -82.972656 13.804688 -95.691406 19.140625 -106.109375 C 24.472656 -116.535156 32.0625 -124.453125 41.90625 -129.859375 C 51.757812 -135.273438 63.515625 -137.984375 77.171875 -137.984375 C 89.847656 -137.984375 101.09375 -135.273438 110.90625 -129.859375 C 120.71875 -124.453125 128.425781 -116.535156 134.03125 -106.109375 C 139.644531 -95.691406 142.453125 -82.972656 142.453125 -67.953125 Z M 48.8125 -67.953125 C 48.8125 -59.078125 49.78125 -51.609375 51.71875 -45.546875 C 53.664062 -39.492188 56.695312 -34.929688 60.8125 -31.859375 C 64.925781 -28.785156 70.296875 -27.25 76.921875 -27.25 C 83.460938 -27.25 88.769531 -28.785156 92.84375 -31.859375 C 96.925781 -34.929688 99.914062 -39.492188 101.8125 -45.546875 C 103.71875 -51.609375 104.671875 -59.078125 104.671875 -67.953125 C 104.671875 -76.921875 103.71875 -84.375 101.8125 -90.3125 C 99.914062 -96.25 96.90625 -100.707031 92.78125 -103.6875 C 88.664062 -106.675781 83.300781 -108.171875 76.6875 -108.171875 C 66.914062 -108.171875 59.828125 -104.816406 55.421875 -98.109375 C 51.015625 -91.410156 48.8125 -81.359375 48.8125 -67.953125 Z M 48.8125 -67.953125 "/></g></g></g><g clip-path="url(#4477d40c8a)"><g transform="matrix(1, 0, 0, 1, 331, 204)"><g clip-path="url(#e2ddcaae45)"><g clip-path="url(#ef61d041ae)"><path fill="#f9bd12" d="M 0.0273438 0.980469 L 3.777344 0.980469 L 3.777344 4.726562 L 0.0273438 4.726562 Z M 0.0273438 0.980469 " fill-opacity="1" fill-rule="nonzero"/></g></g></g></g></svg>